
    <svg width="900" height="172" xmlns="http://www.w3.org/2000/svg">
        <path d="M 50.0 122.0 L 52.0221729490013 121.92942906155734 L 56.47450110862295 121.77064444996732 L 60.92682926827611 121.61185983825195 L 65.37915742792927 121.47071796136663 L 69.81374722836243 121.31193334965126 L 74.28381374720409 121.17079147276593 L 76.50110864743642 121.11786326877724 L 78.71840354766876 121.0649350649139 L 82.42572062083781 120.97672139189191 L 86.13303769400684 120.85322224946056 L 89.1130820399118 120.74736584173388 L 92.05764966740823 120.6415094340072 L 96.49223946784139 120.50036755699652 L 100.94456762749454 120.34158294540651 L 105.3968957871162 120.20044106839582 L 106.90465631927293 120.14751286453249 L 109.92017738358638 120.04165645680581 L 114.35476718401952 119.8828718452158 L 118.80709534367269 119.72408723350043 L 123.25942350332585 119.56530262191042 L 127.7117516629475 119.42416074489974 L 129.71618625276028 119.35358980645707 L 132.09312638581517 119.26537613330973 L 136.4922394678398 119.10659152171971 L 140.94456762749297 118.9478069101297 L 142.73614190685473 118.87723597156167 L 144.509977827028 118.78902229853969 L 146.6031042128463 118.68316589068766 L 148.6962305986646 118.54202401380233 L 149.9733924611818 118.45381034065498 L 150.96674057649395 118.36559666750763 L 152.26164079823116 118.24209752520163 L 153.23725055432328 118.1362411173496 L 155.3303769401101 117.92452830189625 L 157.40576496673992 117.65988728257958 L 159.46341463414973 117.39524626326289 L 161.53880266074805 117.0776770399575 L 162.99334811527623 116.86596422450415 L 164.1108647450024 116.67189414363014 L 165.5476718403421 116.42489585889277 L 166.6829268292568 116.21318304343943 L 168.7937915742636 115.82504288169139 L 173.08647450109422 115.04876255819529 L 177.37915742792487 114.27248223482457 L 181.654101995567 113.49620191132848 L 185.166297117505 112.86106346484307 L 185.166297117505 112.86106346484307 L 185.94678492239765 112.71992158783237 L 187.40133037692587 112.4552805685157 L 189.0155210643081 112.17299681449433 L 190.64745011084733 111.87307032589362 L 193.50332594233825 111.37907375641892 L 196.37694013301768 110.90271992164888 L 198.523281596433 110.53222249448017 L 200.33259423501477 110.21465327130014 L 202.14190687359653 109.89708404799477 L 204.99778270508747 109.38544474394072 L 207.85365853657837 108.87380543988667 L 212.128603104189 108.07988238181126 L 216.42128603101963 107.30360205831516 L 221.03325942349534 106.45675079637641 L 225.30820399113747 105.6804704730057 L 229.58314855874812 104.9041901495096 L 233.85809312639023 104.12790982601351 L 238.13303769400088 103.35162950264278 L 242.4257206208315 102.55770644456737 L 246.66518847006515 101.7990688556506 L 252.28824833700995 100.77579024754252 L 255.0731707316839 100.2817936780678 L 257.16629711750215 99.91129625089908 L 259.277161862509 99.57608429313973 L 260.5011086474292 99.38201421226572 L 261.7427937915694 99.18794413139169 L 264.20842572059826 98.83508943892764 L 266.6740576496586 98.49987748104294 L 269.2815964523214 98.16466552315825 L 271.9068736141728 97.84709629997822 L 273.9822616408027 97.63538348452487 L 276.07538802658945 97.42367066894616 L 278.32815964523036 97.2119578534928 L 280.59866962305966 97.01788777261879 L 282.70953436806644 96.85910316102877 L 284.78492239466476 96.71796128401809 L 286.8780487804831 96.5768194070074 L 288.9889135254899 96.4533202647014 L 291.2771618625077 96.36510659155405 L 293.54767184033705 96.25925018382739 L 295.49889135255285 96.20632197996406 L 297.43237250554864 96.15339377610071 L 297.8403547671677 96.13575104139602 L 298.05321507758725 96.13575104139602 L 299.50776053214696 96.10046557223738 L 303.99556541017716 95.97696642980603 L 308.4478935698303 95.85346728750002 L 312.90022172948346 95.72996814506865 L 320.38580931263857 95.51825532961531 L 320.6164079822466 95.51825532961531 L 325.5476718403358 95.37711345260463 L 328.8115299334773 95.28889977945728 L 331.9689578713933 95.1830433717306 L 334.9312638580782 95.11247243328795 L 338.3725055432307 95.00661602556127 L 338.3725055432307 95.00661602556127 L 338.5853658536502 94.98897329085659 L 342.73614190687834 94.86547414855058 L 346.69179600887543 94.7596177408239 L 351.0376940133031 94.63611859839254 L 354.17738359199905 94.5479049252452 L 357.70731707315707 94.44204851751851 L 361.16629711749806 94.28326390592852 L 364.41241685141955 94.1244792943385 L 367.6407982261526 93.93040921346449 L 370.97560975607956 93.71869639801113 L 373.72505543237645 93.52462631713712 L 374.89578713966813 93.45405537856908 L 377.00665188470646 93.29527076697909 L 377.23725055431447 93.27762803239975 L 380.0221729489884 93.10120068610506 L 385.2727272727227 92.69541778977768 L 390.00886917958087 92.32492036273433 L 394.8691796008846 91.9191374662816 L 399.5875831485543 91.54864003923824 L 404.11086474499297 91.17814261206952 L 409.2549889135332 90.75471698116283 L 413.84922394678887 90.4018622886988 L 417.2549889135329 90.11957853467743 L 421.1751662971215 89.8020093114974 L 425.9113082039797 89.41386914974935 L 430.0975609756163 89.07865719186464 L 434.5144124168295 88.70815976482129 L 439.1086474501166 88.35530507235725 L 443.40133037694727 88.03773584905187 L 448.66962305987005 87.6319529527245 L 452.2705099778136 87.38495466798715 L 456.0842572062081 87.19088458711312 L 460.6430155210553 86.97917177165978 L 465.308203991128 86.78510169078575 L 470.34589800444274 86.67924528305907 L 474.74501108646746 86.59103160991174 L 475.0997782704895 86.59103160991174 L 475.0997782704895 86.60867434449105 L 478.66518847005597 86.59103160991174 L 483.70288248337073 86.60867434449105 L 488.2439024390294 86.66160254847975 L 492.7494456762796 86.76745895620641 L 497.57427937914326 86.92624356779643 L 500.32372505544026 87.03209997552311 L 504.6873614190564 87.24381279097645 L 509.26385809312353 87.49081107571382 L 514.3015521064383 87.77309482973519 L 517.6008869179568 87.93187944132521 L 518.8780487804739 88.02009311447254 L 520.3503325942222 88.02009311447254 L 521.8403547671903 88.02009311447254 L 521.8580931263789 88.00245037989322 L 522.9223946784766 87.9671649106092 L 523.8093126385631 87.93187944132521 L 524.8381374722838 87.86130850288254 L 525.8137472283761 87.79073756431451 L 526.4523281596346 87.72016662587185 L 527.3569844789412 87.61431021814518 L 527.9423503326028 87.52609654499783 L 528.6518847006469 87.42024013727115 L 529.3082039911255 87.3320264641238 L 529.9645232816041 87.22617005639714 L 529.9645232816041 87.24381279097645 L 531.6319290465518 86.92624356779643 L 533.246119733934 86.5733888753324 L 533.8847006651927 86.4146042637424 L 537.9999999999808 85.3383974516456 L 543.0731707317041 84.05047782409548 L 545.6274944567699 83.38005390832606 L 548.3059866962183 82.67434452339799 L 551.5343680709514 81.88042146532258 L 554.7982261640612 81.13942661111051 L 557.9201773836003 80.52193089932979 L 561.2017738358987 79.95736339128703 L 562.4966740576359 79.7809360451177 L 564.1640798226151 79.58686596424369 L 565.4767184035409 79.445724087233 L 567.1796008868971 79.30458221022232 L 568.6341463414568 79.21636853720032 L 570.4789356984471 79.12815486405297 L 571.9334811529752 79.09286939476897 L 573.7960088691856 79.07522666018964 L 577.3436807095321 79.1457975986323 L 581.3170731707177 79.37515314879033 L 584.2793791574342 79.60450869882301 L 587.5432372505442 79.88679245284438 L 589.7250554323679 80.0808625337184 L 590.523281596449 80.15143347216107 L 594.0354767183871 80.48664543004577 L 597.8847006651902 80.8395001225098 L 598.8780487804707 80.91007106107783 L 599.8713968957829 80.98064199952049 L 600.8824833702836 81.0159274688045 L 601.8758314855958 81.03357020338383 L 602.8691796008764 81.0159274688045 L 603.880266075377 80.98064199952049 L 604.8736141906892 80.92771379565716 L 605.8669623059698 80.85714285721448 L 606.8603104212821 80.75128644936245 L 607.8359201773742 80.64543004163579 L 610.248337028806 80.31021808387644 L 613.5121951219475 79.88679245284438 L 616.5099778270409 79.49865229109633 L 619.6851441241769 79.07522666018964 L 622.8603104212813 78.65180102915758 L 625.9645232816002 78.24601813283022 L 629.7250554323664 77.7520215633555 L 632.9711751662878 77.3285959324488 L 636.3059866962149 76.88752756683742 L 639.4811529933509 76.46410193580536 L 643.844789356967 75.88189169318329 L 647.516629711759 75.40553785841325 L 651.2949002217135 74.92918402351788 L 652.0753880266062 74.84097035037053 L 652.0753880266062 74.8233276157912 L 654.3281596452155 74.54104386176982 L 657.5742793791369 74.13526096544246 L 663.0731707316993 73.42955158051439 L 666.4079822616263 72.97084048032369 L 669.9201773835958 72.51212938013298 L 673.2195121951144 72.08870374910092 L 676.2882483370248 71.66527811806887 L 679.3924611973437 71.2594952217415 L 682.5321507760397 70.8360695908348 L 686.0798226164177 70.3597157559394 L 688.9534368070971 69.98921832889604 L 692.1108647450131 69.58343543256868 L 695.3392461197146 69.14236706695729 L 698.7804878048671 68.68365596664123 L 702.2926829268366 68.2073021318712 L 705.3791574279356 67.81916197012315 L 708.2172949002065 67.50159274694313 L 711.2682926829285 67.25459446220577 L 714.4434589800329 67.00759617746841 L 717.6895787139543 66.69002695416303 L 720.5099778270368 66.35481499640369 L 723.8447893569953 65.9137466307923 L 730.7804878048659 65.03160989956955 L 732.9445676275012 64.74932614554817 L 736.3503325942452 64.3082577799368 L 741.299334811523 63.655476598872056 L 744.7228381374554 63.21440823326067 L 749.1042128602916 62.649840725343296 L 750.4168514412488 62.4734133790486 L 752.5631929046641 62.22641509431124 L 755.631929046543 61.82063219798387 L 758.8957871396846 61.39720656707718 L 761.769401330364 61.044351874613135 L 765.068736141914 60.62092624358109 L 768.1374722838243 60.23278608183304 L 769.184035476702 60.09164420482235 L 771.5787139689453 59.791717716221655 L 774.5055432372533 59.40357755459897 L 777.5210643015353 59.015437392850934 L 784.1019955654152 58.150943396207495 L 787.4722838137507 57.7275177653008 L 790.6474501108552 57.32173486897342 L 794.2128603104218 56.86302376865736 L 797.7250554323598 56.38666993388733 L 801.0421286030981 55.92795883369662 L 804.1640798226057 55.52217593724389 L 807.2682926829247 55.11639304091652 L 810.319290465615 54.71061014458915 L 813.3880266075256 54.30482724826178 L 816.8292682926781 53.8637588826504 L 820.0221729490025 53.45797598632303 L 823.3037694013325 53.05219308999566 L 826.5676274944426 52.6287674589636 L 829.8492239467726 52.222984562636235 L 833.1308203991025 51.81720166630886 L 836.27050997783 51.44670423914014 L 839.676274944574 51.0585640773921 L 843.1529933481035 50.70570938492807 L 846.221729490014 50.38814016174805 L 850.0 50.0 " fill="none" stroke="black" />
    
        <circle cx="50.053215077597" cy="122.61749571190609" r="5" fill="black" />
        <text x="61.053215077597" y="123.61749571190609" font-size="12" transform="rotate(-55, 50.053215077597, 122.61749571190609)">Hotel Golf</text>
        
        <circle cx="185.45011086474156" cy="113.46091644204446" r="5" fill="black" />
        <text x="196.45011086474156" y="114.46091644204446" font-size="12" transform="rotate(-55, 185.45011086474156, 113.46091644204446)">Poštovka</text>
        
        <circle cx="338.40798226163923" cy="95.55354079889932" r="5" fill="black" />
        <text x="349.40798226163923" y="96.55354079889932" font-size="12" transform="rotate(-55, 338.40798226163923, 95.55354079889932)">Kotlářka</text>
        
        <circle cx="475.1175166297095" cy="87.13795638324979" r="5" fill="black" />
        <text x="486.1175166297095" y="88.13795638324979" font-size="12" transform="rotate(-55, 475.1175166297095, 87.13795638324979)">Kavalírka</text>
        
        <circle cx="652.2882483370257" cy="75.49375153156062" r="5" fill="black" />
        <text x="663.2882483370257" y="76.49375153156062" font-size="12" transform="rotate(-55, 652.2882483370257, 75.49375153156062)">Klamovka</text>
        </svg>